<svg xmlns="http://www.w3.org/2000/svg" viewBox="0 0 120 120" width="120" height="120">
  <defs>
    <linearGradient id="shield" x1="0%" y1="0%" x2="0%" y2="100%">
      <stop offset="0%" style="stop-color:#0ea5e9"/>
      <stop offset="100%" style="stop-color:#0369a1"/>
    </linearGradient>
    <linearGradient id="glow" x1="0%" y1="0%" x2="0%" y2="100%">
      <stop offset="0%" style="stop-color:#22c55e"/>
      <stop offset="100%" style="stop-color:#16a34a"/>
    </linearGradient>
  </defs>
  <!-- Shield (security / hardening) -->
  <path fill="url(#shield)" d="M60 6 L98 24 v32c0 24-38 52-38 52S22 80 22 56V24Z" stroke="#0c4a6e" stroke-width="2" fill-rule="evenodd"/>
  <!-- Terminal frame -->
  <rect x="36" y="30" width="48" height="52" rx="5" fill="#0f172a" stroke="#475569" stroke-width="1.5"/>
  <!-- Title bar -->
  <circle cx="44" cy="42" r="2.5" fill="#64748b"/>
  <circle cx="53" cy="42" r="2.5" fill="#64748b"/>
  <circle cx="62" cy="42" r="2.5" fill="#64748b"/>
  <!-- Prompt + cursor (CLI) -->
  <rect x="40" y="56" width="6" height="6" rx="1" fill="url(#glow)"/>
  <rect x="50" y="57" width="28" height="4" rx="2" fill="#22c55e" opacity="0.85"/>
  <!-- Lines suggesting output -->
  <rect x="40" y="68" width="32" height="3" rx="1" fill="#64748b" opacity="0.7"/>
  <rect x="40" y="76" width="24" height="3" rx="1" fill="#475569" opacity="0.6"/>
  <!-- Check (secure / done) -->
  <path d="M78 82 L82 86 L90 76" stroke="#22c55e" stroke-width="2.5" stroke-linecap="round" stroke-linejoin="round" fill="none"/>
</svg>
